<svg width="80" height="81" viewBox="0 0 80 81" fill="none" xmlns="http://www.w3.org/2000/svg">
<path d="M69.4973 75.75H11.3059C8.90691 75.75 7 73.8125 7 71.375C7 68.9375 8.90691 67 11.3059 67H69.4973C71.8963 67 73.8032 68.9375 73.8032 71.375C73.8032 73.8125 71.8963 75.75 69.4973 75.75Z" fill="#9EB4D7"/>
<path d="M55.124 51.75H24.3059C21.9069 51.75 20 49.8125 20 47.375C20 44.9375 21.9069 43 24.3059 43H55.124C57.523 43 59.4299 44.9375 59.4299 47.375C59.3684 49.8125 57.4615 51.75 55.124 51.75Z" fill="#5E8DC2"/>
<path d="M43.0724 26.75H36.3059C33.9069 26.75 32 24.8125 32 22.375C32 19.9375 33.9069 18 36.3059 18H43.0724C45.4714 18 47.3783 19.9375 47.3783 22.375C47.3783 24.75 45.4714 26.75 43.0724 26.75Z" fill="#0071B1"/>
</svg>
